<svg width="100" height="100" viewBox="0 0 100 100" fill="none" xmlns="http://www.w3.org/2000/svg">
<path d="M25 19.7851C25 26.1328 19.3906 31.25 12.5 31.25C5.60938 31.25 0 26.1328 0 19.7851C0 14.8965 7.43555 5.04099 10.834 0.800952C11.666 -0.267017 13.334 -0.267017 14.166 0.801148C17.5957 5.04099 25 14.8965 25 19.7851ZM18.2285 11.7187C16.3496 8.74802 14.1484 5.80857 12.5039 3.72458C10.8613 5.81443 8.66406 8.75388 6.7832 11.7207C5.68359 13.4551 4.73438 15.1367 4.06836 16.625C3.36914 18.1894 3.125 19.2304 3.125 19.7851C3.125 24.1406 7.07227 28.125 12.5 28.125C17.9277 28.125 21.875 24.1406 21.875 19.7851C21.875 19.2265 21.6406 18.1836 20.9375 16.623C20.2734 15.1347 19.3242 13.4531 18.2285 11.7187ZM28.125 8.53123C27.3633 8.93357 26.4258 8.64255 26.0156 7.87888C25.6055 7.11716 25.8984 6.17185 26.6602 5.76755C33.6328 2.08396 41.582 7.32224e-05 50 7.32224e-05C77.6172 7.32224e-05 100 22.3828 100 50C100 77.6172 77.6172 100 50 100C22.3828 100 5.85938e-05 77.6172 5.85938e-05 50C5.85938e-05 45.3906 0.625781 40.9179 1.79766 36.6601C2.02734 35.8398 2.88867 35.1758 3.71875 35.5859C4.55078 35.8008 5.03906 36.6601 4.81055 37.3242C3.71289 41.4844 3.125 45.664 3.125 50C3.125 75.8789 24.1211 96.875 50 96.875C75.8789 96.875 96.875 75.8789 96.875 50C96.875 24.1211 75.8789 3.12498 50 3.12498C42.0898 3.12498 34.6484 5.08005 28.125 8.53123ZM34.7852 78.6328C37.7148 75.2148 42.793 71.875 50 71.875C57.207 71.875 62.2852 75.2148 65.2148 78.6328C65.8008 79.2773 65.7422 80.0976 65.1172 80.8398C64.4727 81.4258 63.4766 81.3672 62.9102 80.7422C60.4102 77.9492 56.1133 75 49.8242 75C43.8867 75 39.5898 77.9492 37.0898 80.7422C36.3477 81.3672 35.5273 81.4258 34.8828 80.8398C34.2578 80.0976 34.1992 79.2773 34.7852 78.6328ZM78.125 53.125C78.9844 53.125 79.6875 53.8281 79.6875 54.6875C79.6875 55.5469 78.9844 56.25 78.125 56.25H59.375C58.5156 56.25 57.8125 55.5469 57.8125 54.6875C57.8125 53.8281 58.5156 53.125 59.375 53.125H78.125ZM40.625 56.25H21.875C21.0156 56.25 20.3125 55.5469 20.3125 54.6875C20.3125 53.8281 21.0156 53.125 21.875 53.125H40.625C41.4844 53.125 42.1875 53.8281 42.1875 54.6875C42.1875 55.5469 41.4844 56.25 40.625 56.25Z" fill="#999999"/>
</svg>
